<svg xmlns="http://www.w3.org/2000/svg" viewBox="0 0 38.51 38.5" id="facebook">
  <defs>
    <linearGradient id="a" x1="0" x2="38.51" y1="19.25" y2="19.25" gradientUnits="userSpaceOnUse">
      <stop offset="0" stop-color="#1677f1"></stop>
      <stop offset=".18" stop-color="#176ee9"></stop>
      <stop offset=".46" stop-color="#1d55d3"></stop>
      <stop offset=".82" stop-color="#252eb0"></stop>
      <stop offset="1" stop-color="#2b189c"></stop>
    </linearGradient>
  </defs>
  <g style="isolation:isolate">
    <g>
      <g>
        <g>
          <path fill="url(#a)" d="M38.51,19.25c0,5.29-2.17,10.11-5.66,13.6-3.27,3.27-7.71,5.37-12.6,5.62-.33.02-.67.03-1,.03C8.66,38.5,0,29.84,0,19.25c0-5.29,2.16-10.11,5.65-13.6S13.96,0,19.25,0s10.11,2.16,13.6,5.65c3.02,3.02,5.05,7.04,5.54,11.5.08.69.12,1.39.12,2.1Z"></path>
          <path fill="#2921a4" d="M38.51,19.25c0,5.29-2.17,10.11-5.66,13.6-3.27,3.27-7.71,5.37-12.6,5.62-1.03-1.09-2.08-2.2-2.87-3.03-.8-.85-1.34-1.42-1.34-1.42v-7.95l-4.7-4.97v-5.35h4.7c4.14-6.98,4.24-9.73,11.12-10.91,0,0,9.55,10.54,11.23,12.31.08.69.12,1.39.12,2.1Z" style="mix-blend-mode:multiply"></path>
          <path fill="#fff" d="M21.82,34.02v-12.92h4.31l.82-5.35h-5.13v-3.47c0-1.46.72-2.89,3.01-2.89h2.33v-4.55s-2.12-.36-4.14-.36c-4.22,0-6.98,2.56-6.98,7.19v4.07h-4.7v5.35h4.7v12.92h5.78Z"></path>
        </g>
      </g>
    </g>
  </g>
</svg>
