<svg xmlns="http://www.w3.org/2000/svg" viewBox="0 0 38.5 38.5" id="instagram">
  <defs>
    <linearGradient id="a" x1="6.89" x2="31.61" y1="4.52" y2="33.98" gradientUnits="userSpaceOnUse">
      <stop offset="0" stop-color="#ffe185"></stop>
      <stop offset=".21" stop-color="#ffbb36"></stop>
      <stop offset=".38" stop-color="#ff5176"></stop>
      <stop offset=".52" stop-color="#f63395"></stop>
      <stop offset=".74" stop-color="#a436d2"></stop>
      <stop offset="1" stop-color="#5f4eed"></stop>
    </linearGradient>
  </defs>
  <g style="isolation:isolate">
    <g>
      <g>
        <g>
          <path fill="url(#a)" d="M38.5,19.25c0,5.29-2.16,10.11-5.65,13.6s-8.31,5.65-13.6,5.65c-1.27,0-2.52-.13-3.73-.36C6.7,36.39,0,28.57,0,19.25c0-5.29,2.16-10.11,5.65-13.6S13.96,0,19.25,0s10.11,2.16,13.6,5.65c2.63,2.63,4.5,6.01,5.27,9.77.25,1.24.38,2.52.38,3.83Z"></path>
          <g style="mix-blend-mode:multiply">
            <path fill="#d75fff" d="M38.5,19.25c0,5.29-2.16,10.11-5.65,13.6s-8.31,5.65-13.6,5.65c-1.27,0-2.52-.13-3.73-.36-2.49-2.47-4.96-4.93-7.44-7.4-1.59-1.51-2.59-3.64-2.59-6v-10.98c0-4.56,3.71-8.27,8.27-8.27h10.98c2.36,0,4.48.99,5.98,2.57,2.47,2.45,4.94,4.91,7.4,7.36.25,1.24.38,2.52.38,3.83Z"></path>
          </g>
          <g>
            <path fill="#fff" d="M26.54 10.4c-.89 0-1.61.72-1.61 1.61s.72 1.61 1.61 1.61 1.61-.72 1.61-1.61-.72-1.61-1.61-1.61zM19.36 12.47c-3.74 0-6.78 3.04-6.78 6.78s3.04 6.78 6.78 6.78 6.78-3.04 6.78-6.78-3.04-6.78-6.78-6.78zM19.36 23.59c-2.39 0-4.34-1.95-4.34-4.34s1.95-4.34 4.34-4.34 4.34 1.95 4.34 4.34-1.95 4.34-4.34 4.34z"></path>
            <path fill="#fff" d="M24.74,33.01h-10.99c-4.56,0-8.27-3.71-8.27-8.27v-10.99c0-4.56,3.71-8.27,8.27-8.27h10.99c4.56,0,8.27,3.71,8.27,8.27v10.99c0,4.56-3.71,8.27-8.27,8.27ZM13.76,8.08c-3.13,0-5.68,2.55-5.68,5.68v10.99c0,3.13,2.55,5.68,5.68,5.68h10.99c3.13,0,5.68-2.55,5.68-5.68v-10.99c0-3.13-2.55-5.68-5.68-5.68h-10.99Z"></path>
          </g>
        </g>
      </g>
    </g>
  </g>
</svg>
